Info:-

Format                           : Matroska
File size                        : 1.46 GiB
Duration                         : 1h 38mn
Overall bit rate                 : 2 114 Kbps
Movie name                       : Toy Story 3 by Abhinav4u
Encoded date                     : UTC 2012-02-18 21:09:11
Writing application              : mkvmerge v4.5.0 ('Speed of Light') built on Feb  1 2011 02:10:32
Writing library                  : libebml v1.2.0 + libmatroska v1.1.0

Video
ID                               : 1
Format                           : AVC
Format/Info                      : Advanced Video Codec
Format profile                   : High@L4.0
Format settings, CABAC           : Yes
Format settings, ReFrames        : 3 frames
Format settings, GOP             : M=4, N=31
Muxing mode                      : Header stripping
Codec ID                         : V_MPEG4/ISO/AVC
Duration                         : 1h 38mn
Bit rate mode                    : Variable
Bit rate                         : 1 900 Kbps
Maximum bit rate                 : 25.0 Mbps
Width                            : 1 280 pixels
Height                           : 720 pixels
Display aspect ratio             : 16:9
Frame rate                       : 25.000 fps
Color space                      : YUV
Chroma subsampling               : 4:2:0
Bit depth                        : 8 bits
Scan type                        : Progressive
Bits/(Pixel*Frame)               : 0.082
Stream size                      : 1.28 GiB (87%)
Writing library                  : x264 core 114 r1924 08d04a4


Audio
ID                               : 2
Format                           : MPEG Audio
Format version                   : Version 1
Format profile                   : Layer 3
Mode                             : Joint stereo
Muxing mode                      : Header stripping
Codec ID                         : A_MPEG/L3
Codec ID/Hint                    : MP3
Duration                         : 1h 38mn
Bit rate mode                    : Constant
Bit rate                         : 224 Kbps
Channel(s)                       : 2 channels
Sampling rate                    : 48.0 KHz
Compression mode                 : Lossy
Delay relative to video          : 600ms
Stream size                      : 158 MiB (11%)
Title                            : Orginal(2.1) by Abhinav4u
Writing library                  : LAME3.97
Language                         : Hindi

Screens:-

[img]http://i.minus.com/ibaQVoJxaxLawG.png[/img]
[img]http://i.minus.com/ibwrvjYTQPZnh4.png[/img]
[img]http://i.minus.com/ibw98CZyv1kW4Q.png[/img]
[img]http://i.minus.com/ioyoARZfqGpko.png[/img]



Storyline:-

Woody, Buzz and the whole gang are back. As their owner Andy prepares to depart for college, his loyal toys find 

themselves in daycare where untamed tots with their sticky little fingers do not play nice. So, it's all for one and 

one for all as they join Barbie's counterpart Ken, a thespian hedgehog named Mr. Pricklepants and a pink, strawberry-

scented teddy bear called Lots-o'-Huggin' Bear to plan their great escape.

Box Office:-

Budget:
$200,000,000 (estimated)
Opening Weekend:
$110,307,189 (USA) (20 June 2010) (4028 Screens)
Gross:
$1,063,171,911 (Worldwide) (1 November 2011) 

Note:-This rip Contains ORIGINAL(2.1) Hindi Audio..

Sample Included PLz comment About the quality..
hope u'll Like my work..
Regards::Abhinav4u		